<?xml version="1.0" encoding="UTF-8" standalone="no"?>
<svg
   id="svg8"
   version="1.1"
   viewBox="0 0 1533.397 811.26001"
   height="811.26001mm"
   width="1533.397mm"
   sodipodi:docname="logo_bw_contra_eng.svg"
   inkscape:version="1.1 (c68e22c387, 2021-05-23)"
   xmlns:inkscape="http://www.inkscape.org/namespaces/inkscape"
   xmlns:sodipodi="http://sodipodi.sourceforge.net/DTD/sodipodi-0.dtd"
   xmlns="http://www.w3.org/2000/svg"
   xmlns:svg="http://www.w3.org/2000/svg"
   xmlns:rdf="http://www.w3.org/1999/02/22-rdf-syntax-ns#"
   xmlns:cc="http://creativecommons.org/ns#"
   xmlns:dc="http://purl.org/dc/elements/1.1/">
  <sodipodi:namedview
     id="namedview17"
     pagecolor="#505050"
     bordercolor="#ffffff"
     borderopacity="1"
     inkscape:pageshadow="0"
     inkscape:pageopacity="0"
     inkscape:pagecheckerboard="1"
     inkscape:document-units="mm"
     showgrid="false"
     fit-margin-top="0"
     fit-margin-left="0"
     fit-margin-right="0"
     fit-margin-bottom="0"
     inkscape:zoom="0.23716796"
     inkscape:cx="-92.761265"
     inkscape:cy="2567.8005"
     inkscape:window-width="3840"
     inkscape:window-height="2054"
     inkscape:window-x="-11"
     inkscape:window-y="-11"
     inkscape:window-maximized="1"
     inkscape:current-layer="svg8" />
  <defs
     id="defs2">
    <clipPath
       id="clip1">
      <path
         d="m 112.5,112.5 h 150 v 150 h -150 z m 0,0"
         id="path10" />
    </clipPath>
    <clipPath
       id="clip1-3">
      <path
         d="m 112.5,112.5 h 150 v 150 h -150 z m 0,0"
         id="path1104" />
    </clipPath>
  </defs>
  <metadata
     id="metadata5">
    <rdf:RDF>
      <cc:Work
         rdf:about="">
        <dc:format>image/svg+xml</dc:format>
        <dc:type
           rdf:resource="http://purl.org/dc/dcmitype/StillImage" />
      </cc:Work>
    </rdf:RDF>
  </metadata>
  <rect
     style="opacity:1;fill:#800080;stroke-width:4.99999;stroke-linecap:round;stroke-linejoin:round;stroke-opacity:0;paint-order:stroke markers fill"
     id="rect902-9"
     width="44.458256"
     height="15.95261"
     x="328.8855"
     y="1312.8363"
     transform="rotate(90)" />
  <g
     id="g5268"
     transform="matrix(0,1,-0.93356279,0,-917.37268,1897.4554)"
     style="opacity:0;fill:#ffffff">
    <rect
       style="opacity:1;fill:#ffffff;fill-opacity:1;stroke:none;stroke-width:0.79375;stroke-linecap:round;stroke-linejoin:round;stroke-miterlimit:4;stroke-dasharray:none;stroke-dashoffset:0;stroke-opacity:1;paint-order:stroke markers fill"
       id="rect5295"
       width="1642.5215"
       height="811.26001"
       x="982.65771"
       y="-1897.4554"
       transform="rotate(-90)" />
  </g>
  <path
     id="path1237-2"
     style="clip-rule:nonzero;fill:none;fill-opacity:1;fill-rule:nonzero;stroke:#ffffff;stroke-width:10;stroke-linecap:round;stroke-linejoin:round;stroke-miterlimit:4;stroke-dasharray:none;stroke-opacity:1"
     d="m 318.26582,329.46481 c -113.5221,53.9894 -44.295,210.08538 -44.295,210.08538 v 0 c 9.7515,9.79733 10.8279,28.35127 4.742,56.93397 8.1093,5.48148 16.6228,10.39233 25.4336,14.82751 44.0306,-38.58471 67.312,-32.11626 86.6102,23.57893 5.1724,0.34478 10.3569,0.5829 15.6006,0.5829 5.25563,0 10.45153,-0.23799 15.60013,-0.5829 9.5469,-27.53569 20.0716,-43.01257 33.5876,-46.98733 -0.7788,-0.22349 -1.39424,-0.226 -2.0263,-0.30899 -1.2715,-0.16748 -3.1346,-0.43011 -5.5004,-0.81026 -2.3659,-0.38029 -5.2349,-0.87858 -8.5178,-1.51673 -3.283,-0.63814 -6.9797,-1.41623 -11.0025,-2.35746 -2.0114,-0.47061 -4.1041,-0.982 -6.2673,-1.53686 -2.1631,-0.55486 -4.3968,-1.15308 -6.6895,-1.79782 -2.2927,-0.64476 -4.6449,-1.33609 -7.04513,-2.07637 -2.4001,-0.74027 -4.848,-1.52947 -7.3334,-2.3709 -2.4853,-0.84148 -5.0081,-1.73527 -7.5566,-2.68356 -2.5485,-0.9483 -5.1232,-1.95147 -7.7127,-3.01223 -2.5895,-1.06077 -5.1938,-2.17906 -7.8021,-3.35794 -2.6083,-1.17887 -5.2204,-2.41805 -7.8254,-3.7207 -2.6049,-1.30265 -5.2025,-2.66896 -7.7819,-4.10104 -2.5795,-1.43208 -5.1407,-2.93026 -7.6724,-4.49739 -2.5318,-1.56715 -5.0342,-3.20296 -7.4962,-4.91082 -2.462,-1.70784 -4.8833,-3.48758 -7.2533,-5.34178 -1.185,-0.92713 -2.3572,-1.8728 -3.515,-2.83755 -1.1579,-0.96481 -2.3014,-1.94866 -3.4293,-2.95177 -1.1279,-1.00312 -2.2405,-2.02534 -3.3357,-3.0675 -1.0953,-1.0422 -2.1731,-2.10392 -3.2329,-3.18588 -1.0598,-1.0819 -2.1012,-2.18434 -3.1228,-3.30676 -1.0216,-1.12241 -2.0234,-2.26515 -3.0039,-3.42873 -0.9806,-1.16359 -1.94,-2.34781 -2.8769,-3.55328 -0.9368,-1.20547 -1.8511,-2.43234 -2.7414,-3.68038 -0.8903,-1.24807 -1.7568,-2.51719 -2.5978,-3.80857 -0.841,-1.29135 -1.6564,-2.60498 -2.4453,-3.94031 -0.7889,-1.33538 -1.5516,-2.69256 -2.2857,-4.07262 -0.7341,-1.38007 -1.4396,-2.78305 -2.1161,-4.20855 -0.6765,-1.42546 -1.3238,-2.87385 -1.9399,-4.34546 -0.6162,-1.47161 -1.2015,-2.96606 -1.7545,-4.48448 -0.5529,-1.51844 -1.0735,-3.06064 -1.5606,-4.62658 -0.487,-1.56596 -0.9402,-3.15608 -1.3586,-4.77025 -0.4183,-1.61425 -0.8018,-3.25231 -1.1487,-4.91548 -0.3469,-1.66315 -0.6575,-3.35098 -0.9302,-5.06376 -0.2727,-1.71283 -0.5076,-3.45048 -0.7033,-5.21364 -0.1957,-1.76316 -0.3523,-3.55184 -0.4682,-5.36609 -0.1159,-1.81417 -0.1909,-3.65408 -0.2243,-5.52008 -0.033,-1.8659 -0.025,-3.7582 0.027,-5.67664 0.047,-1.75604 0.1331,-3.53507 0.2542,-5.33559 v -5.3e-4 c -0.1036,-0.29484 -0.2061,-0.59009 -0.3074,-0.88574 -0.051,-0.14786 -0.1012,-0.29583 -0.1514,-0.44389 l -0.025,-0.0729 -0.062,-0.18706 c -0.029,-0.0857 -0.057,-0.17154 -0.086,-0.25736 l -5e-4,-0.002 -5e-4,-0.002 c -0.09,-0.27114 -0.1798,-0.54261 -0.2682,-0.81441 l -0.024,-0.0729 c -0.04,-0.1243 -0.08,-0.24867 -0.1199,-0.37311 l -0.024,-0.0734 c -0.031,-0.095 -0.061,-0.19013 -0.091,-0.28525 l -0.034,-0.10697 -0.011,-0.0372 c -0.041,-0.13033 -0.082,-0.26074 -0.1225,-0.39121 -0.039,-0.12602 -0.078,-0.2521 -0.1173,-0.37825 l -0.03,-0.0966 -0.014,-0.0465 -0.047,-0.15345 c -0.029,-0.0961 -0.059,-0.19221 -0.088,-0.28837 v -0.007 c -0.038,-0.12499 -0.075,-0.25004 -0.1126,-0.37516 -0.045,-0.1496 -0.089,-0.29929 -0.1333,-0.44907 -0.044,-0.14995 -0.088,-0.29999 -0.1318,-0.45011 -0.043,-0.15012 -0.087,-0.30033 -0.1297,-0.45062 l -0.021,-0.0739 c -0.036,-0.12551 -0.071,-0.25109 -0.1065,-0.37672 -0.085,-0.30077 -0.1683,-0.60187 -0.2506,-0.90331 v -5e-4 c -0.041,-0.15065 -0.082,-0.30137 -0.1225,-0.45218 l -0.02,-0.0744 c -0.023,-0.0873 -0.047,-0.17463 -0.07,-0.26199 l -0.041,-0.15555 -0.01,-0.0357 c -0.033,-0.1262 -0.066,-0.25247 -0.099,-0.37878 -0.079,-0.30251 -0.1559,-0.60534 -0.2321,-0.90847 -0.035,-0.1386 -0.07,-0.27727 -0.1038,-0.416 l -0.013,-0.0506 -0.011,-0.0455 c -0.033,-0.13258 -0.065,-0.26521 -0.097,-0.3979 -0.037,-0.15185 -0.073,-0.30377 -0.1095,-0.45577 -0.073,-0.30392 -0.1442,-0.60812 -0.2145,-0.91261 v -5.2e-4 c -0.035,-0.15221 -0.07,-0.30448 -0.1044,-0.45683 l -0.017,-0.0749 c -0.028,-0.12742 -0.057,-0.25489 -0.085,-0.38241 -0.034,-0.15254 -0.067,-0.30515 -0.1008,-0.45783 l -0.016,-0.0755 -0.039,-0.1819 c -0.018,-0.0837 -0.036,-0.16741 -0.054,-0.25114 l -0.01,-0.0253 c -0.027,-0.1276 -0.054,-0.25524 -0.081,-0.38293 l -0.016,-0.0754 -0.035,-0.16796 -0.024,-0.11575 -0.013,-0.0661 -0.012,-0.0605 c -0.03,-0.14412 -0.059,-0.28831 -0.088,-0.43254 l -0.016,-0.076 c -0.018,-0.092 -0.037,-0.18395 -0.055,-0.27596 l -0.027,-0.13382 -0.01,-0.0501 c -0.03,-0.15342 -0.06,-0.30689 -0.089,-0.46043 -0.024,-0.12812 -0.049,-0.25627 -0.073,-0.38447 l -0.014,-0.0755 -0.033,-0.17621 -0.013,-0.0703 -0.017,-0.0904 -0.019,-0.0997 v -0.0243 c -0.024,-0.12846 -0.047,-0.25696 -0.07,-0.3855 -0.019,-0.10677 -0.038,-0.21357 -0.057,-0.32039 l -0.024,-0.13694 -10e-4,-0.006 -0.01,-0.0605 c -0.024,-0.13294 -0.047,-0.26592 -0.07,-0.39894 -0.026,-0.15394 -0.052,-0.30794 -0.078,-0.46199 v -5e-4 l -0.013,-0.076 c -0.013,-0.0813 -0.027,-0.1626 -0.04,-0.24392 l -0.032,-0.19018 v -0.014 c -0.022,-0.13363 -0.044,-0.2673 -0.065,-0.401 -0.022,-0.13381 -0.043,-0.26765 -0.064,-0.40153 l -0.012,-0.0765 c -0.023,-0.14947 -0.046,-0.29899 -0.069,-0.44855 -0.024,-0.15446 -0.047,-0.30897 -0.07,-0.46352 l -0.011,-0.076 c -0.012,-0.0859 -0.025,-0.17191 -0.037,-0.25789 l -0.025,-0.17362 v -0.0176 c -0.019,-0.13432 -0.038,-0.26868 -0.057,-0.40307 -0.014,-0.0983 -0.027,-0.19671 -0.041,-0.29509 l -0.01,-0.0672 -0.019,-0.13848 -0.01,-0.0398 -0.019,-0.14314 c -0.014,-0.1054 -0.028,-0.21082 -0.042,-0.31626 l -5e-4,-0.005 -0.015,-0.11626 c -0.012,-0.0947 -0.025,-0.18948 -0.037,-0.28424 v -0.0181 l -0.02,-0.15815 -0.01,-0.0827 c -0.011,-0.0854 -0.021,-0.17085 -0.032,-0.2563 v -0.0145 c -0.016,-0.12968 -0.032,-0.25939 -0.047,-0.38913 l -0.01,-0.0765 -0.022,-0.19015 -0.01,-0.0837 -0.01,-0.0589 -0.011,-0.0946 c -0.017,-0.14242 -0.033,-0.28488 -0.049,-0.42736 -0.035,-0.31062 -0.068,-0.62137 -0.1,-0.93226 -0.016,-0.15035 -0.031,-0.30073 -0.046,-0.45114 v -0.015 -5.1e-4 c -0.031,-0.31098 -0.06,-0.62208 -0.088,-0.93329 -0.012,-0.129 -0.024,-0.25802 -0.035,-0.38706 l -0.01,-0.1085 v -0.0233 l -0.014,-0.16899 c -0.01,-0.10764 -0.018,-0.2153 -0.027,-0.32297 -0.011,-0.13021 -0.022,-0.26044 -0.032,-0.39069 l -0.01,-0.0765 -0.01,-0.11216 -0.01,-0.12195 -0.016,-0.21291 -10e-4,-0.015 -5e-4,-0.009 v -0.0589 c -0.01,-0.13504 -0.02,-0.27009 -0.029,-0.40516 -0.01,-0.1302 -0.018,-0.26042 -0.027,-0.39065 v -0.0212 l -5e-4,-0.0114 v -0.0444 -0.0532 l -0.01,-0.0806 c -0.01,-0.11127 -0.014,-0.22254 -0.021,-0.33383 -0.01,-0.13021 -0.016,-0.26044 -0.024,-0.39068 l -5e-4,-0.008 -5e-4,-0.0129 -0.012,-0.20413 v -0.0615 l -0.01,-0.10231 -0.01,-0.13952 -10e-4,-0.0166 v -0.046 -0.004 c -0.01,-0.13952 -0.015,-0.27905 -0.022,-0.4186 -0.01,-0.13039 -0.013,-0.26078 -0.019,-0.39119 v -0.0191 l -5e-4,-0.0176 v -0.0403 l -0.01,-0.12041 c -0.01,-0.11592 -0.01,-0.23184 -0.015,-0.34777 -0.01,-0.13056 -0.011,-0.26114 -0.016,-0.39172 l -5e-4,-0.009 v -0.0403 c -0.01,-0.14279 -0.01,-0.2856 -0.015,-0.42841 -0.01,-0.15295 -0.01,-0.3059 -0.015,-0.45887 -0.01,-0.31244 -0.018,-0.62491 -0.025,-0.93741 0,-0.15606 -0.01,-0.31212 -0.01,-0.46819 -0.01,-0.31245 -0.011,-0.62492 -0.014,-0.93741 v -5.1e-4 c 0,-0.31246 -0.01,-0.62493 -0.01,-0.93742 -4e-4,-0.11783 -6e-4,-0.23565 -6e-4,-0.35348 v -0.93739 -5.3e-4 c -3e-4,-0.15606 -3e-4,-0.31212 0,-0.46818 v -5.3e-4 c 0,-0.15607 0.01,-0.31213 0.01,-0.46818 v -5e-4 c 0,-0.15608 0.01,-0.31215 0.01,-0.46821 v -5e-4 c 0,-0.15608 0.01,-0.31215 0.01,-0.46821 v -5e-4 c 0.01,-0.31233 0.016,-0.62463 0.026,-0.93689 0.01,-0.31234 0.021,-0.62464 0.034,-0.93689 0.01,-0.15608 0.013,-0.31215 0.02,-0.46821 v -5e-4 c 0.014,-0.31219 0.029,-0.62432 0.045,-0.93639 0.016,-0.31202 0.033,-0.62397 0.052,-0.93585 0.01,-0.15591 0.019,-0.31181 0.029,-0.46768 v -5e-4 c 0.03,-0.46769 0.062,-0.93521 0.098,-1.40251 v -5.3e-4 c 0.024,-0.31153 0.049,-0.62296 0.075,-0.93429 0.026,-0.31137 0.053,-0.62264 0.082,-0.9338 0.014,-0.15558 0.029,-0.31112 0.044,-0.46664 v -5.1e-4 c 0.03,-0.31088 0.061,-0.62163 0.1337,-1.3211 0.073,-0.69947 0.2011,-1.78565 0.3448,-2.86987 v -5e-4 c 0.041,-0.30989 0.083,-0.61962 0.1271,-0.92917 0.022,-0.15455 0.044,-0.30906 0.066,-0.46352 0.045,-0.30938 0.091,-0.61858 0.1379,-0.9276 0.071,-0.46328 0.1444,-0.92614 0.2207,-1.38854 v -5.2e-4 c 0.051,-0.3082 0.1032,-0.6162 0.1566,-0.92398 v -5.1e-4 c 0.053,-0.30786 0.108,-0.61551 0.1638,-0.92294 0.056,-0.30736 0.1128,-0.61449 0.171,-0.92139 v -5.3e-4 c 0.029,-0.15335 0.058,-0.30665 0.088,-0.45989 v -5.3e-4 c 0.3272,-1.68745 0.6914,-3.36751 1.0924,-5.03897 0.1094,-0.45577 0.2216,-0.91088 0.3365,-1.3653 0.077,-0.30296 0.1541,-0.6056 0.233,-0.90794 v -5.3e-4 c 0.039,-0.15115 0.079,-0.30222 0.1194,-0.45321 0.1203,-0.45307 0.2433,-0.90542 0.369,-1.35702 0.042,-0.15045 0.084,-0.30082 0.1266,-0.45111 v -5.3e-4 c 0.1273,-0.45087 0.2574,-0.90098 0.3901,-1.3503 v -5.3e-4 c 0.089,-0.29956 0.1787,-0.59876 0.2698,-0.8976 v -5.3e-4 c 0.091,-0.29889 0.1831,-0.59741 0.2764,-0.89556 0.14,-0.44734 0.2826,-0.89383 0.4279,-1.33946 v -5e-4 c 0.048,-0.14841 0.097,-0.29673 0.1463,-0.44495 v -5e-4 c 0.049,-0.14842 0.099,-0.29673 0.1483,-0.44495 0.099,-0.29616 0.1997,-0.59192 0.3013,-0.88728 0.1524,-0.44327 0.3074,-0.88563 0.465,-1.32704 0.2103,-0.58858 0.4253,-1.17547 0.645,-1.76062 v -5e-4 c 0.1648,-0.4387 0.3322,-0.87641 0.5023,-1.3131 v -5.3e-4 c 0.1134,-0.29105 0.2279,-0.58164 0.3436,-0.87178 v -5.3e-4 c 0.099,-0.24839 0.199,-0.49644 0.2997,-0.74414 l 0.051,-0.12504 v -5.3e-4 l 0.052,-0.12607 c 0.1011,-0.24702 0.2031,-0.49369 0.3059,-0.74002 v -5.3e-4 c 0.06,-0.14429 0.1206,-0.28846 0.1814,-0.43251 0.061,-0.14378 0.1216,-0.28744 0.1829,-0.43098 0.1225,-0.28747 0.2462,-0.57445 0.371,-0.86093 0.125,-0.28645 0.2511,-0.57239 0.3783,-0.85783 v -5.3e-4 c 0.064,-0.14258 0.1275,-0.28503 0.1917,-0.42736 v -5.2e-4 c 0.064,-0.14241 0.1286,-0.28468 0.1933,-0.42683 0.1091,-0.23947 0.219,-0.47856 0.3297,-0.71729 l 0.062,-0.13435 v -5.3e-4 c 0.066,-0.14155 0.132,-0.28297 0.1984,-0.42426 v -5e-4 l 0.1,-0.21135 0.1002,-0.21188 v -5.3e-4 c 0.067,-0.14121 0.1345,-0.28229 0.2021,-0.42323 0.067,-0.14069 0.1351,-0.28124 0.2031,-0.42166 v -5.3e-4 c 0.2725,-0.56238 0.5495,-1.12257 0.8309,-1.68053 v -5e-4 c 0.1407,-0.27893 0.2824,-0.55731 0.4253,-0.83511 v -5e-4 c 0.072,-0.13898 0.1434,-0.27782 0.2155,-0.41651 0.072,-0.13847 0.1441,-0.27679 0.2165,-0.41497 v -5e-4 c 0.073,-0.13847 0.1455,-0.27679 0.2186,-0.41497 0.073,-0.13795 0.1465,-0.27576 0.2202,-0.41342 0.1472,-0.27551 0.2955,-0.55043 0.4449,-0.82475 v -5.1e-4 c 0.075,-0.1371 0.1499,-0.27404 0.2253,-0.41084 v -5e-4 c 0.075,-0.13676 0.151,-0.27336 0.2269,-0.40982 v -5e-4 c 0.076,-0.1364 0.152,-0.27266 0.2284,-0.40876 v -5.2e-4 c 0.3055,-0.54524 0.6154,-1.08804 0.9296,-1.62833 0.1571,-0.27004 0.3152,-0.53945 0.4744,-0.80822 l 6e-4,-5.1e-4 c 0.3981,-0.67202 0.8029,-1.34005 1.2143,-2.004 v -5.3e-4 c 0.082,-0.13263 0.1648,-0.2651 0.2476,-0.39741 v -5e-4 c 0.2486,-0.39734 0.4996,-0.79319 0.7529,-1.18753 v -5e-4 c 0.1688,-0.26285 0.3386,-0.52503 0.5095,-0.78653 v -5.3e-4 c 0.1709,-0.26147 0.3428,-0.52227 0.5158,-0.78237 0.086,-0.13005 0.1733,-0.25992 0.2604,-0.38962 v -5.3e-4 c 0.174,-0.25959 0.349,-0.51849 0.525,-0.77669 0.2642,-0.3871 0.5307,-0.77261 0.7995,-1.15652 v -5.3e-4 c 0.09,-0.12799 0.1795,-0.2558 0.2697,-0.38343 0.1802,-0.25531 0.3615,-0.5099 0.5437,-0.76377 0.1823,-0.25378 0.3655,-0.50683 0.5498,-0.75915 v -5e-4 c 0.1842,-0.25223 0.3693,-0.50373 0.5555,-0.75449 z m -93.2073,28.66131 -0.098,0.0305 m 0,0 c -3.609,13.34373 -19.0412,23.52236 -46.8375,32.54322 -0.6924,9.76363 -0.689,19.59153 -0.1245,29.43956 55.4306,18.8392 61.4697,42.23588 22.8854,86.79624 2.2876,4.65182 4.6733,9.26108 7.2952,13.80225 2.6278,4.5515 5.4319,8.93199 8.3049,13.21832 28.6201,-5.49994 47.2862,-4.12385 57.4864,5.59398 m 44.2954,-210.08538 c 21.6594,-24.54233 53.3674,-39.79296 88.188,-39.79291 7.92176,1e-5 15.8232,0.80152 23.58363,2.3921 -21.92703,-15.35943 -43.73453,-21.28803 -64.49483,-21.07983 h 4e-4 c -77.5462,0.77763 -140.4845,87.14195 -140.4845,87.14195 m 181.3957,-68.45422 c 50.09891,2.3e-4 94.68372,31.77601 111.03153,79.13264 C 527.83185,243.1835 357.64522,224.98617 357.64522,224.98617 m 0,0 v 0 m 0,0 c -13.3605,3.5464 -29.8916,-4.7292 -51.602,-24.291 l 10e-5,-2e-4 c -8.8018,4.2821 -17.3112,9.1992 -25.5576,14.612 11.4,57.4239 -5.8428,74.3521 -63.7254,63.21729 -2.8848,4.30702 -5.683,8.67765 -8.3049,13.21885 -2.6278,4.5515 -5.0196,9.17046 -7.2951,13.80173 19.0731,22.03571 27.214,38.88872 23.8982,52.58128 m 252.98983,-44.11359 c 28.91942,22.2341 45.86749,56.64233 45.8675,93.12093 -10e-5,27.66082 -9.76194,54.43425 -27.5658,75.60365 111.5138,-54.61439 42.8692,-209.39804 42.8692,-209.39804 l -10e-5,-2e-5 c -9.7515,-9.79734 -10.8277,-28.35136 -4.7419,-56.93398 -8.1093,-5.4815 -16.6227,-10.3924 -25.4336,-14.8275 -44.0305,38.58465 -67.312,32.11615 -86.6102,-23.5789 -5.1724,-0.3448 -10.3569,-0.583 -15.60063,-0.583 l 2e-4,1e-4 c -5.2556,0 -10.4515,0.2379 -15.6001,0.5829 -9.5469,27.5357 -20.0716,43.0125 -33.5876,46.9873 m 165.67413,193.9659 c -6.06668,59.98974 -56.56951,105.64301 -116.86523,105.64317 m 0,0 c -6.836,-1.4e-4 -13.6589,-0.59703 -20.391,-1.78387 m 0,0 c 102.80183,68.16426 202.14353,-67.97886 202.14353,-67.97886 v 0 c 3.609,-13.34378 19.0635,-23.62153 46.8598,-32.64239 0.6925,-9.76363 0.6885,-19.59206 0.124,-29.44006 -55.4306,-18.8392 -61.4692,-42.23591 -22.8849,-86.79627 -2.2876,-4.6518 -4.6738,-9.26055 -7.2957,-13.80172 -2.6278,-4.5515 -5.4319,-8.9325 -8.3049,-13.21885 -28.62,5.49995 -47.2856,4.12385 -57.4859,-5.59395 m -132.86233,251.2864 c -11.2203,1e-5 -22.1694,-1.60385 -32.5895,-4.62602 -35.8024,-10.38389 -65.3595,-37.51163 -78.2152,-73.85698 v 0 c -8.2113,123.65074 159.99283,141.76082 159.99283,141.76082 v -2e-5 c 13.3606,-3.54642 29.9661,4.79843 51.6765,24.36024 8.8018,-4.28209 17.3117,-9.19919 25.5582,-14.61201 -11.4001,-57.42392 5.8422,-74.35209 63.7247,-63.21734 2.8848,-4.30699 5.6836,-8.67762 8.3055,-13.21882 2.6278,-4.5515 5.0195,-9.17046 7.2951,-13.80175 -19.0731,-22.03569 -27.214,-38.8887 -23.8982,-52.58128"
     sodipodi:nodetypes="ccscccscccsssssssssssssssssssssssssssssssssssccsscsccscscccssccsscccccsccsssssscsccssccccssssccccsccscccccccccsssccccccscccccsccccccssscccccsccccsscsccccccccccccscccscccccsccccccccccccccccsccccccccccccccccscccsccsscscsssssssssscssscssssscsscsssccsssssssssscsscsssssssssssscssssssssscccsscsssssssscsscccscsssssssssssssssssssssssssssssscsssssssssccccccccscccsccccccccccscccscccsccscccccccccccccscccscccssscscccscc" />
  <text
     xml:space="preserve"
     style="font-style:normal;font-variant:normal;font-weight:bold;font-stretch:normal;font-size:159.306px;line-height:1;font-family:'Montserrat Alternates';-inkscape-font-specification:'Montserrat Alternates, Bold';font-variant-ligatures:normal;font-variant-caps:normal;font-variant-numeric:normal;font-variant-east-asian:normal;fill:#ffffff;fill-opacity:1;stroke:none;stroke-width:0.597388"
     x="666.08252"
     y="385.12744"
     id="text1438"><tspan
       id="tspan43"
       style="font-style:normal;font-variant:normal;font-weight:600;font-stretch:normal;font-size:159.306px;font-family:'Montserrat Alternates';-inkscape-font-specification:'Montserrat Alternates, Semi-Bold';font-variant-ligatures:normal;font-variant-caps:normal;font-variant-numeric:normal;font-variant-east-asian:normal;fill:#ffffff;stroke-width:0.597388"
       x="666.08252"
       y="385.12744">Equality</tspan><tspan
       style="font-style:normal;font-variant:normal;font-weight:600;font-stretch:normal;font-size:159.306px;font-family:'Montserrat Alternates';-inkscape-font-specification:'Montserrat Alternates, Semi-Bold';font-variant-ligatures:normal;font-variant-caps:normal;font-variant-numeric:normal;font-variant-east-asian:normal;fill:#ffffff;stroke-width:0.597388"
       x="666.08252"
       y="544.43347"
       id="tspan863">Factory</tspan></text>
  <rect
     style="opacity:0;fill:#ffffff;fill-opacity:1;stroke:#363636;stroke-width:0.79375;stroke-linecap:round;stroke-linejoin:round;stroke-miterlimit:4;stroke-dasharray:none;stroke-dashoffset:0;stroke-opacity:1;paint-order:stroke markers fill"
     id="rect5330"
     width="1642.5215"
     height="811.25995"
     x="4.9654507e-05"
     y="9.2968749e-06" />
</svg>
